<svg xmlns="http://www.w3.org/2000/svg" viewBox="0 0 128 128">
    <path fill="#007396" d="M53.748 103.725c-12.792 7.624 7.803 11.54 26.01 4.186-2.884-1.313-5.982-2.823-8.598-4.347-6.88 1.3-12.973 1.444-17.412.161M39.56 87.861c-14.03 4.099 7.565 12.143 25.738 5.146-2.225-1.675-3.91-2.768-6.122-3.961-5.546 1.034-10.515 1.064-14.616.185m39.698-15.12c8.324-5.88 4.46-11.488 1.782-10.726-.658.189-1.294.396-1.882.604 1.875-2.647 3.61-5.291 4.704-7.952-9.345 4.547-19.79 8.184-25.53 14.684-8.134 9.241 6.06 12.348 20.927 4.39M67.704 54.038c2.885-3.722-7.663-7.117-11.14-10.124 2.864-1.64 5.72-3.552 7.845-5.724-11.95-3.213-24.907-3.097-30.267.118-1.33 7.288 6.956 11.321 12.21 16.37-1.892.726-5.445 2.087-7.909 2.952 7.957 2.134 18.276 2.828 29.26-3.592M76.562 6.115c-8.913 5.705-12.586 13.497-12.07 22.997.07 1.383.438 2.716.95 4.006 2.757-6.86 7.075-13.068 14.345-18.527 3.876 1.236 7.533 2.806 10.902 4.703C91.274 11.742 85.289 7.988 76.562 6.115"/>
</svg>
